<?xml version="1.0" encoding="UTF-8"?>
<!DOCTYPE svg PUBLIC "-//W3C//DTD SVG 1.1//EN" "http://www.w3.org/Graphics/SVG/1.1/DTD/svg11.dtd">
<!-- Creator: CorelDRAW -->
<svg xmlns="http://www.w3.org/2000/svg" xml:space="preserve" width="120.411mm" height="23.5286mm" version="1.1" style="shape-rendering:geometricPrecision; text-rendering:geometricPrecision; image-rendering:optimizeQuality; fill-rule:evenodd; clip-rule:evenodd"
viewBox="0 0 10435.87 2039.2"
 xmlns:xlink="http://www.w3.org/1999/xlink"
 xmlns:xodm="http://www.corel.com/coreldraw/odm/2003">
 <defs>
  <style type="text/css">
   <![CDATA[
    .fil2 {fill:#6229FF;fill-rule:nonzero}
    .fil1 {fill:white;fill-rule:nonzero}
    .fil0 {fill:url(#id0)}
   ]]>
  </style>
  <linearGradient id="id0" gradientUnits="userSpaceOnUse" x1="2214.08" y1="166.33" x2="1914.22" y2="1775.04">
   <stop offset="0" style="stop-opacity:1; stop-color:#FF01FB"/>
   <stop offset="1" style="stop-opacity:1; stop-color:#6229FF"/>
  </linearGradient>
 </defs>
 <g id="Capa_x0020_1">
  <metadata id="CorelCorpID_0Corel-Layer"/>
  <g id="_105553302118432">
   <path class="fil0" d="M153.61 916.23c84.49,0 153.61,69.13 153.61,153.61l0 82.36c0,84.49 -69.12,153.61 -153.61,153.61 -84.49,0 -153.61,-69.12 -153.61,-153.61l0 -82.36c0,-84.48 69.12,-153.61 153.61,-153.61zm1369.8 -102.69c84.49,0 153.61,69.08 153.61,153.54l0 918.57c0,84.46 -69.12,153.54 -153.61,153.54 -84.49,0 -153.61,-69.08 -153.61,-153.54l0 -918.57c0,-84.46 69.12,-153.54 153.61,-153.54zm473.38 -725.04c84.49,0 153.61,69.13 153.61,153.55l0 1370.22c0,84.42 -69.12,153.54 -153.61,153.54 -84.48,0 -153.61,-69.12 -153.61,-153.54l0 -1370.22c0,-84.42 69.13,-153.55 153.61,-153.55zm446.98 341.22c84.48,0 153.61,69.15 153.61,153.65l0 513.41c0,84.48 -69.13,153.65 -153.61,153.65 -84.49,0 -153.62,-69.16 -153.62,-153.65l0 -513.41c0,-84.49 69.13,-153.65 153.62,-153.65zm464.54 486.51c84.49,0 153.61,69.13 153.61,153.61l0 82.36c0,84.49 -69.12,153.61 -153.61,153.61 -84.49,0 -153.61,-69.12 -153.61,-153.61l0 -82.36c0,-84.48 69.12,-153.61 153.61,-153.61zm-1839.93 -13.48c84.48,0 153.61,69.12 153.61,153.61l0 232.2c0,84.48 -69.13,153.61 -153.61,153.61 -84.49,0 -153.61,-69.13 -153.61,-153.61l0 -232.2c0,-84.49 69.12,-153.61 153.61,-153.61zm0 -885.25c84.48,0 153.61,69.13 153.61,153.58l0 500.42c0,84.46 -69.13,153.58 -153.61,153.58 -84.49,0 -153.61,-69.12 -153.61,-153.58l0 -500.42c0,-84.45 69.12,-153.58 153.61,-153.58zm-465.35 546.27c84.49,0 153.62,69.16 153.62,153.61l0 787.27c0,84.46 -69.13,153.62 -153.62,153.62 -84.48,0 -153.61,-69.16 -153.61,-153.62l0 -787.27c0,-84.45 69.13,-153.61 153.61,-153.61z"/>
   <path class="fil1" d="M4132.3 1340.39c-31.3,3.68 -66.28,5.52 -104.95,5.52 -97.58,0 -173.07,-31.3 -226.47,-93.9 -53.4,-62.6 -81.02,-150.98 -81.02,-263.29l0 -953.75c0,-18.41 9.21,-27.61 27.62,-27.61l158.34 0c18.41,0 27.62,9.2 27.62,27.61l0 946.38c0,60.76 9.2,103.11 29.46,128.89 20.25,27.61 49.71,40.51 92.06,40.51 14.73,0 38.66,-1.85 69.96,-3.68 18.42,0 27.62,9.2 27.62,27.61l0 136.25c0,18.41 -7.37,27.62 -20.25,29.46z"/>
   <path id="_1" class="fil1" d="M4216.91 445.57c93.91,-64.45 215.42,-97.59 360.87,-97.59 119.68,0 213.59,31.3 281.71,92.06 68.12,62.6 101.26,156.51 101.26,281.71l0 537.63c0,14.73 -7.37,25.78 -20.25,31.3 -51.55,16.57 -110.47,29.46 -174.92,40.51 -66.28,9.2 -130.72,14.73 -195.16,14.73 -119.68,0 -217.26,-23.93 -294.6,-73.64 -77.33,-49.71 -116,-127.05 -116,-233.83 0,-97.59 36.83,-171.23 110.48,-220.94 71.81,-49.71 169.39,-73.65 292.75,-73.65 49.71,0 110.47,5.52 184.12,14.73l0 -34.99c0,-66.28 -12.89,-114.15 -40.51,-143.61 -27.61,-27.62 -75.49,-42.35 -143.61,-42.35 -44.19,0 -86.54,5.52 -127.05,14.73 -42.35,11.05 -77.33,25.78 -108.63,44.19 -5.52,3.68 -11.04,5.52 -16.56,5.52 -9.21,0 -14.73,-3.68 -20.25,-12.89l-73.65 -112.31c-9.2,-12.89 -9.2,-23.94 0,-31.3zm158.34 591.02c0,42.35 18.41,71.81 53.4,92.06 34.98,20.25 82.86,31.3 141.77,31.3 57.07,0 115.99,-7.37 176.75,-22.1l0 -208.05c-66.28,-9.21 -125.2,-14.73 -178.6,-14.73 -128.89,0 -193.32,40.51 -193.32,121.52z"/>
   <path id="_2" class="fil1" d="M5330.74 990.56c0,49.71 12.89,90.22 38.66,117.83 23.94,27.62 60.75,42.36 106.78,42.36l75.5 -3.68c20.25,0 29.46,9.2 29.46,25.78l0 139.93c0,18.42 -9.21,27.62 -25.78,29.46 -42.35,1.85 -73.64,3.68 -97.58,3.68 -101.26,0 -184.12,-27.61 -246.72,-84.69 -62.6,-55.23 -93.91,-139.94 -93.91,-255.92l0 -841.43c0,-16.57 9.21,-25.78 27.62,-25.78l139.94 0c7.36,0 12.89,1.84 18.41,5.52 5.52,5.53 7.37,11.05 9.2,18.42l16.57 220.94 197.01 0c18.42,0 27.62,9.2 27.62,25.78l0 134.41c0,16.57 -9.2,25.78 -27.62,25.78l-195.16 0 0 421.64z"/>
   <path id="_3" class="fil1" d="M5905.09 119.68c0,34.98 -11.04,62.6 -33.13,86.53 -23.94,23.94 -51.56,34.99 -86.54,34.99 -34.99,0 -62.6,-11.05 -86.54,-34.99 -23.94,-23.93 -34.98,-51.55 -34.98,-86.53 0,-34.99 11.04,-62.6 34.98,-86.54 23.94,-22.09 51.55,-33.14 86.54,-33.14 34.98,0 64.44,11.05 86.54,33.14 22.09,22.09 33.13,51.55 33.13,86.54zm-200.69 1204.14c-18.41,0 -27.61,-9.2 -27.61,-27.62l0 -900.34c0,-16.57 9.2,-25.78 27.61,-25.78l160.19 0c16.57,0 25.78,9.2 25.78,25.78l0 900.34c0,18.42 -9.2,27.62 -25.78,27.62l-160.19 0z"/>
   <path id="_4" class="fil1" d="M6089.13 1323.82c-18.41,0 -27.62,-9.2 -27.62,-27.62l0 -843.27c0,-16.57 7.37,-27.61 20.25,-33.14 110.48,-47.87 232,-71.81 366.4,-71.81 134.41,0 239.35,33.14 314.84,99.43 75.49,68.12 112.31,171.23 112.31,313l0 535.79c0,18.42 -9.2,27.62 -25.78,27.62l-160.18 0c-18.42,0 -27.62,-9.2 -27.62,-27.62l0 -532.1c0,-82.86 -18.41,-139.94 -53.4,-174.92 -34.98,-33.14 -88.38,-49.71 -160.18,-49.71 -64.44,0 -121.52,7.37 -173.08,20.25l0 736.48c0,18.42 -9.2,27.62 -27.61,27.62l-158.34 0z"/>
   <path id="_5" class="fil1" d="M7847.38 973.99c0,114.16 -38.66,204.37 -114.15,270.66 -75.49,68.12 -178.6,101.26 -305.64,101.26 -127.05,0 -230.15,-33.14 -305.64,-101.26 -75.49,-66.28 -114.16,-156.5 -114.16,-270.66l0 -246.72c0,-116 38.67,-208.06 114.16,-276.18 75.49,-68.12 178.59,-103.11 305.64,-103.11 127.04,0 230.15,34.99 305.64,103.11 75.49,68.12 114.15,160.18 114.15,276.18l0 246.72zm-624.16 0c0,58.92 18.41,103.11 53.4,134.41 34.98,31.3 84.69,46.03 150.98,46.03 66.28,0 117.83,-14.73 152.81,-46.03 34.99,-31.3 51.56,-75.49 51.56,-134.41l0 -246.72c0,-60.75 -18.42,-106.78 -53.4,-139.93 -34.98,-31.3 -86.54,-47.88 -150.98,-47.88 -66.28,0 -116,16.57 -150.98,47.88 -34.99,31.3 -53.4,79.17 -53.4,139.93l0 246.72z"/>
   <path id="_6" class="fil1" d="M8106.9 416.11c86.54,-40.51 174.92,-60.76 265.14,-60.76 123.36,0 219.1,31.3 289.07,95.74 68.12,64.44 103.1,162.03 103.1,290.91l0 567.08c0,9.21 -5.52,14.73 -14.73,14.73l-66.28 0c-11.05,0 -16.57,-5.52 -16.57,-14.73l0 -565.25c0,-103.11 -25.78,-178.6 -75.49,-226.47 -49.71,-47.88 -125.2,-71.81 -224.63,-71.81 -92.06,0 -178.6,20.25 -259.61,60.75l0 802.76c0,9.21 -5.52,14.73 -14.73,14.73l-66.28 0c-11.05,0 -16.57,-5.52 -16.57,-14.73l0 -1287c0,-9.2 5.52,-14.73 16.57,-14.73l66.28 0c9.21,0 14.73,5.52 14.73,14.73l0 394.02z"/>
   <path id="_7" class="fil1" d="M9078.27 116c0,18.41 -5.52,33.14 -18.41,46.03 -12.9,12.89 -27.62,18.41 -46.03,18.41 -20.25,0 -34.99,-5.52 -47.88,-18.41 -12.89,-12.89 -18.41,-27.62 -18.41,-46.03 0,-20.25 5.52,-34.99 18.41,-47.88 12.89,-12.89 27.62,-18.41 47.88,-18.41 18.41,0 33.13,5.52 46.03,18.41 12.89,12.89 18.41,27.62 18.41,47.88zm-99.43 1207.83c-9.2,0 -14.73,-5.52 -14.73,-14.73l0 -916.91c0,-11.05 5.52,-16.57 14.73,-16.57l68.12 0c9.21,0 14.73,5.52 14.73,16.57l0 916.91c0,9.21 -5.52,14.73 -14.73,14.73l-68.12 0z"/>
   <path id="_8" class="fil1" d="M9361.04 1027.39c0,71.81 18.42,127.04 53.4,165.71 34.98,38.66 84.69,58.92 150.98,58.92l101.26 -3.68 3.68 0c7.37,0 11.05,5.52 11.05,14.73l0 58.93c0,9.2 -5.52,14.73 -14.73,16.57 -33.13,3.67 -68.12,5.52 -104.95,5.52 -92.06,0 -163.86,-27.62 -217.26,-81.02 -53.4,-53.39 -81.01,-130.72 -81.01,-231.99l0 -876.41c0,-9.2 5.52,-14.73 14.73,-14.73l58.93 0c9.2,0 14.73,5.53 16.56,14.73l5.53 224.63 281.7 0c9.2,0 14.73,5.52 14.73,16.57l0 57.07c0,9.21 -5.53,14.73 -14.73,14.73l-279.86 0 0 559.72z"/>
   <path id="_9" class="fil1" d="M10433.69 1067.9c0,84.69 -31.3,150.98 -95.74,200.69 -64.45,49.71 -152.82,75.49 -263.29,75.49 -132.57,0 -250.4,-40.51 -355.35,-119.68 -9.21,-5.52 -11.05,-11.04 -5.53,-20.25l31.3 -51.55c5.52,-9.2 12.89,-11.05 22.09,-3.68 95.74,71.81 198.85,106.79 309.32,106.79 77.33,0 139.94,-16.57 187.8,-47.88 46.03,-31.3 69.97,-77.33 69.97,-136.24 0,-40.51 -11.05,-73.65 -34.99,-97.59 -23.93,-23.94 -53.39,-40.5 -86.53,-51.55 -34.99,-11.05 -79.17,-22.09 -136.25,-34.99 -99.43,-20.25 -182.28,-49.7 -248.56,-90.21 -66.28,-38.66 -99.43,-103.11 -99.43,-189.65 0,-79.17 33.14,-141.77 97.58,-185.96 64.45,-44.19 145.46,-66.28 243.04,-66.28 60.76,0 116,7.37 167.55,22.09 51.56,16.57 103.11,38.67 154.66,66.28 9.21,5.53 11.05,12.89 5.53,22.09l-29.46 49.71c-1.85,3.68 -5.53,5.53 -9.2,7.37 -3.68,1.85 -7.37,0 -12.9,-1.84 -40.5,-23.94 -84.69,-42.35 -132.56,-55.24 -49.71,-12.89 -97.59,-20.25 -147.3,-20.25 -71.81,0 -130.72,14.73 -174.91,42.35 -44.19,29.46 -66.28,69.97 -66.28,119.67 0,57.08 23.93,97.59 69.96,123.36 46.03,27.62 112.31,49.71 200.69,68.12 71.81,14.73 128.89,29.46 174.92,46.03 46.03,16.57 84.7,44.19 116,79.17 31.3,34.99 47.88,82.86 47.88,143.62z"/>
   <path class="fil2" d="M8714.79 2018.73c-3.76,0 -6.77,-1.51 -8.28,-3.76l-163.25 -216.66 -112.84 0 0 214.41c0,3.76 -2.26,6.01 -6.02,6.01l-29.34 0c-3.76,0 -6.02,-2.25 -6.02,-6.01l0 -525.87c0,-3.76 2.26,-6.01 6.02,-6.01l167.01 0c57.18,0 102.31,14.29 134.67,42.13 32.34,27.84 48.9,66.95 48.9,116.6 0,44.39 -13.54,80.5 -40.62,107.58 -27.84,27.84 -65.45,43.64 -114.35,48.15l164.76 215.91 0.75 3.01c0,3.01 -1.5,4.52 -5.26,4.52l-36.11 0zm-284.37 -499.53l0 240.74 132.4 0c45.14,0 79.74,-10.53 104.57,-30.85 24.07,-20.32 36.11,-49.65 36.11,-88.77 0,-39.12 -12.04,-69.21 -36.11,-90.27 -24.83,-20.32 -59.44,-30.85 -104.57,-30.85l-132.4 0z"/>
   <path id="_1_0" class="fil2" d="M8815.55 2018.73c-2.26,0 -3.02,-0.75 -3.76,-2.25 -0.75,-1.51 -1.51,-3.02 -0.75,-5.27l192.59 -525.12c2.26,-3.76 4.52,-5.26 6.78,-5.26l37.61 0c3.01,0 5.26,1.5 6.77,5.26l193.34 525.12 0 2.25c0,3.76 -1.5,5.27 -5.26,5.27l-30.85 0c-3.01,0 -5.27,-1.51 -7.52,-5.27l-54.92 -151.97 -240.74 0 -54.91 151.97c-1.51,3.76 -3.76,5.27 -6.78,5.27l-31.59 0zm212.9 -489.76l-106.83 294.15 215.16 0 -106.08 -294.15 -2.25 0z"/>
   <path id="_2_1" class="fil2" d="M9348.13 2018.73c-3.76,0 -6.02,-2.25 -6.02,-6.01l0 -525.87c0,-3.76 2.26,-6.01 6.02,-6.01l180.56 0c58.67,0 105.32,16.55 139.17,50.41 33.85,33.85 50.41,79.74 50.41,139.17l0 161c0,59.43 -16.55,105.32 -50.41,137.67 -33.85,33.1 -80.5,49.65 -139.17,49.65l-180.56 0zm180.56 -39.12c46.64,0 82.75,-12.78 108.33,-38.37 25.58,-25.58 38.37,-62.44 38.37,-109.84l0 -161c0,-48.14 -12.78,-85.76 -38.37,-112.09 -25.58,-26.34 -61.69,-39.12 -108.33,-39.12l-145.2 0 0 460.41 145.2 0z"/>
   <path id="_3_2" class="fil2" d="M9898.02 2012.72c0,3.76 -2.26,6.01 -6.02,6.01l-29.34 0c-3.76,0 -6.02,-2.25 -6.02,-6.01l0 -525.87c0,-3.76 2.26,-6.01 6.02,-6.01l29.34 0c3.76,0 6.02,2.25 6.02,6.01l0 525.87z"/>
   <path id="_4_3" class="fil2" d="M10435.87 1841.94c0,36.11 -8.28,68.46 -24.08,96.3 -16.55,27.84 -39.87,49.65 -69.97,65.45 -30.84,15.8 -65.44,23.32 -105.32,23.32 -39.88,0 -75.23,-7.52 -105.32,-23.32 -30.1,-15.8 -53.41,-37.61 -69.97,-65.45 -16.55,-27.84 -24.83,-60.18 -24.83,-96.3l0 -179.8c0,-37.61 8.28,-70.71 24.83,-100.05 15.8,-28.59 39.12,-50.41 69.21,-66.21 30.09,-15.8 65.45,-23.32 106.07,-23.32 39.88,0 75.23,7.52 105.32,23.32 30.1,15.8 53.41,37.61 69.97,66.21 15.8,29.34 24.08,62.44 24.08,100.05l0 179.8zm-358.1 0c0,43.64 14.29,79 42.88,105.33 28.59,27.08 66.96,40.62 115.86,40.62 48.9,0 87.27,-13.54 115.86,-40.62 27.83,-26.33 42.13,-61.69 42.13,-105.33l0 -179.8c0,-45.89 -14.3,-82.75 -42.13,-109.84 -28.59,-27.08 -66.96,-40.62 -115.86,-40.62 -48.9,0 -88.02,13.54 -115.86,40.62 -28.58,27.08 -42.88,63.94 -42.88,109.84l0 179.8z"/>
  </g>
 </g>
</svg>
